<svg xmlns="http://www.w3.org/2000/svg" viewBox="0 0 16 16" aria-hidden="true">
  <path fill="var(--muted)" d="M8 1.5L5.4 2.95v3.55c0 1.95 1.15 3.75 2.6 4.45 1.45-.7 2.6-2.5 2.6-4.45V2.95L8 1.5z"/>
  <path fill="var(--fg)" opacity="0.85" d="M8 3.65c-.35.2-.6.45-.6.45v2.4c0 1.15.55 2.2 1.35 2.85.35-.25.65-.6.9-1 .4-.7.6-1.5.6-2.35V3.65s-.25-.25-.6-.45a2.9 2.9 0 0 0-1.2 0z"/>
  <path fill="var(--muted)" d="M3.75 11.85h8.5v2.65h-8.5v-2.65z"/>
  <path fill="var(--fg)" opacity="0.5" d="M5.9 11.85v-1.35h4.2v1.35H5.9z"/>
</svg>
