<svg xmlns="http://www.w3.org/2000/svg" viewBox="0 0 16 16" aria-hidden="true">
  <path fill="var(--accent)" opacity="0.35" d="M8 13.55l-.35-.32C4.65 10.55 2.65 8.85 2.65 6.45c0-1.55 1.15-2.75 2.6-2.75.8 0 1.55.38 2.05.98l.7.82.7-.82c.5-.6 1.25-.98 2.05-.98 1.45 0 2.6 1.2 2.6 2.75 0 2.4-2 4.1-5 6.78L8 13.55z"/>
  <path fill="var(--accent)" d="M8 12.85l-.28-.26C5.05 10.15 3.35 8.65 3.35 6.55c0-1.15.85-2.05 1.9-2.05.58 0 1.12.28 1.48.72L8 6.45l1.27-1.23c.36-.44.9-.72 1.48-.72 1.05 0 1.9.9 1.9 2.05 0 2.1-1.7 3.6-4.37 6.04L8 12.85z"/>
</svg>
