<svg xmlns="http://www.w3.org/2000/svg" viewBox="0 0 16 16" aria-hidden="true">
  <path fill="var(--muted)" d="M2.85 2.35h7.35a.95.95 0 0 1 .95.95v9.35a.95.95 0 0 1-.95.95H2.85a.95.95 0 0 1-.95-.95V3.3a.95.95 0 0 1 .95-.95z"/>
  <path fill="var(--fg)" opacity="0.45" d="M4.4 4.55h4.25v.85H4.4v-.85zm0 2h4.25v.85H4.4v-.85zm0 2h3.15v.85H4.4v-.85z"/>
  <path fill="var(--accent)" d="M11.65 4.35h2.5v7.3l-1.25 1.85-1.25-1.85v-7.3z"/>
  <path fill="var(--bg)" opacity="0.55" d="M12.35 5.35h1.1v5.5h-1.1v-5.5z"/>
</svg>
